<svg width="21" height="22" viewBox="0 0 21 22" fill="none" xmlns="http://www.w3.org/2000/svg">
<g clip-path="url(#clip0)">
<path d="M4.06897 16.5728H1C0.447715 16.5728 0 17.0205 0 17.5728V20.6417C0 21.194 0.447715 21.6417 0.999999 21.6417H4.06897C4.62125 21.6417 5.06897 21.194 5.06897 20.6417V17.5728C5.06897 17.0205 4.62125 16.5728 4.06897 16.5728Z" fill="#7E7D7D"/>
<path d="M4.06897 8.60693H1C0.447715 8.60693 0 9.05465 0 9.60693V12.6759C0 13.2282 0.447715 13.6759 0.999999 13.6759H4.06897C4.62125 13.6759 5.06897 13.2282 5.06897 12.6759V9.60693C5.06897 9.05465 4.62125 8.60693 4.06897 8.60693Z" fill="#7E7D7D"/>
<path d="M4.06897 0.641602H1C0.447715 0.641602 0 1.08932 0 1.6416V4.71057C0 5.26285 0.447715 5.71057 0.999999 5.71057H4.06897C4.62125 5.71057 5.06897 5.26286 5.06897 4.71057V1.6416C5.06897 1.08932 4.62125 0.641602 4.06897 0.641602Z" fill="#7E7D7D"/>
<path d="M12.0345 16.5728H8.96558C8.41329 16.5728 7.96558 17.0205 7.96558 17.5728V20.6417C7.96558 21.194 8.41329 21.6417 8.96557 21.6417H12.0345C12.5868 21.6417 13.0345 21.194 13.0345 20.6417V17.5728C13.0345 17.0205 12.5868 16.5728 12.0345 16.5728Z" fill="#7E7D7D"/>
<path d="M12.0345 8.60693H8.96558C8.41329 8.60693 7.96558 9.05465 7.96558 9.60693V12.6759C7.96558 13.2282 8.41329 13.6759 8.96557 13.6759H12.0345C12.5868 13.6759 13.0345 13.2282 13.0345 12.6759V9.60693C13.0345 9.05465 12.5868 8.60693 12.0345 8.60693Z" fill="#7E7D7D"/>
<path d="M12.0345 0.641602H8.96558C8.41329 0.641602 7.96558 1.08932 7.96558 1.6416V4.71057C7.96558 5.26285 8.41329 5.71057 8.96557 5.71057H12.0345C12.5868 5.71057 13.0345 5.26286 13.0345 4.71057V1.6416C13.0345 1.08932 12.5868 0.641602 12.0345 0.641602Z" fill="#7E7D7D"/>
<path d="M19.9999 16.5728H16.9309C16.3786 16.5728 15.9309 17.0205 15.9309 17.5728V20.6417C15.9309 21.194 16.3786 21.6417 16.9309 21.6417H19.9999C20.5522 21.6417 20.9999 21.194 20.9999 20.6417V17.5728C20.9999 17.0205 20.5522 16.5728 19.9999 16.5728Z" fill="#7E7D7D"/>
<path d="M19.9999 8.60693H16.9309C16.3786 8.60693 15.9309 9.05465 15.9309 9.60693V12.6759C15.9309 13.2282 16.3786 13.6759 16.9309 13.6759H19.9999C20.5522 13.6759 20.9999 13.2282 20.9999 12.6759V9.60693C20.9999 9.05465 20.5522 8.60693 19.9999 8.60693Z" fill="#7E7D7D"/>
<path d="M19.9999 0.641602H16.9309C16.3786 0.641602 15.9309 1.08932 15.9309 1.6416V4.71057C15.9309 5.26285 16.3786 5.71057 16.9309 5.71057H19.9999C20.5522 5.71057 20.9999 5.26286 20.9999 4.71057V1.6416C20.9999 1.08932 20.5522 0.641602 19.9999 0.641602Z" fill="#7E7D7D"/>
</g>
<defs>
<clipPath id="clip0">
<rect y="0.641602" width="21" height="21" fill="white"/>
</clipPath>
</defs>
</svg>
