<svg width="30" height="29" viewBox="0 0 30 29" fill="none" xmlns="http://www.w3.org/2000/svg">
<path d="M25.6091 3.57244C23.9242 1.90095 21.9426 0.71154 19.8296 0V4.49449C20.8469 4.99762 21.8112 5.65232 22.6568 6.49438C26.8808 10.692 26.8808 17.5169 22.6568 21.7125C18.4329 25.9017 11.5661 25.9017 7.33575 21.7125C3.11604 17.5127 3.11604 10.692 7.33575 6.49438C7.34634 6.48175 7.38025 6.4607 7.39509 6.44175H7.39933L9.90233 8.92372L9.8875 1.04205L1.95673 1.03152L4.44913 3.50718C4.4343 3.53244 4.41098 3.5577 4.39191 3.57244C-1.46397 9.38686 -1.46397 18.82 4.39191 24.6344C10.2563 30.4552 19.7469 30.4552 25.6091 24.6344C31.4608 18.82 31.4671 9.38686 25.6091 3.57244Z" fill="#87D585"/>
</svg>
