<?xml version="1.0" encoding="UTF-8"?>
<!DOCTYPE svg PUBLIC "-//W3C//DTD SVG 1.1//EN" "http://www.w3.org/Graphics/SVG/1.1/DTD/svg11.dtd">
<!-- Creator: CorelDRAW Home & Student X7 -->
<svg xmlns="http://www.w3.org/2000/svg" xml:space="preserve" width="2352px" height="980px" version="1.1" style="shape-rendering:geometricPrecision; text-rendering:geometricPrecision; image-rendering:optimizeQuality; fill-rule:evenodd; clip-rule:evenodd"
viewBox="0 0 2336 974"
 xmlns:xlink="http://www.w3.org/1999/xlink">
 <defs>
  <style type="text/css">
   <![CDATA[
    .fil20 {fill:#B2B3B3}
    .fil9 {fill:#898989}
    .fil11 {fill:#474646}
    .fil7 {fill:#434242}
    .fil10 {fill:#585959}
    .fil8 {fill:#4A4A4A}
    .fil4 {fill:#2F2F2F}
    .fil13 {fill:#E7E7E7}
    .fil3 {fill:#F9F9F9}
    .fil0 {fill:url(#id14)}
    .fil5 {fill:url(#id15)}
    .fil19 {fill:url(#id16)}
    .fil14 {fill:url(#id17)}
    .fil1 {fill:url(#id18)}
    .fil17 {fill:url(#id19)}
    .fil18 {fill:url(#id20)}
    .fil6 {fill:url(#id21)}
    .fil12 {fill:url(#id22)}
    .fil16 {fill:url(#id23)}
    .fil2 {fill:url(#id24)}
    .fil15 {fill:url(#id25)}
   ]]>
  </style>
   <mask id="id0">
  <linearGradient id="id1" gradientUnits="userSpaceOnUse" x1="2125.12" y1="457.565" x2="2231.77" y2="439.936">
   <stop offset="0" style="stop-opacity:0; stop-color:white"/>
   <stop offset="0.419608" style="stop-opacity:-127.502; stop-color:white"/>
   <stop offset="1" style="stop-opacity:1; stop-color:white"/>
  </linearGradient>
    <rect style="fill:url(#id1)" x="2107" y="405" width="142.042" height="87.9448"/>
   </mask>
   <mask id="id2">
  <linearGradient id="id3" gradientUnits="userSpaceOnUse" x1="226.416" y1="447.925" x2="97.9356" y2="435.631">
   <stop offset="0" style="stop-opacity:0; stop-color:white"/>
   <stop offset="0.411765" style="stop-opacity:-127.502; stop-color:white"/>
   <stop offset="1" style="stop-opacity:1; stop-color:white"/>
  </linearGradient>
    <rect style="fill:url(#id3)" x="89" y="396" width="145.642" height="91.7173"/>
   </mask>
   <mask id="id4">
  <linearGradient id="id5" gradientUnits="userSpaceOnUse" x1="774.598" y1="134.817" x2="871.246" y2="88.0621">
   <stop offset="0" style="stop-opacity:0; stop-color:white"/>
   <stop offset="0.478431" style="stop-opacity:-127.502; stop-color:white"/>
   <stop offset="1" style="stop-opacity:1; stop-color:white"/>
  </linearGradient>
    <rect style="fill:url(#id5)" x="683" y="75" width="278.964" height="72.3094"/>
   </mask>
   <mask id="id6">
  <radialGradient id="id7" gradientUnits="userSpaceOnUse" cx="2169.91" cy="306.343" r="30.0358" fx="2169.91" fy="306.343">
   <stop offset="0" style="stop-opacity:1; stop-color:white"/>
   <stop offset="0.639216" style="stop-opacity:-127.502; stop-color:white"/>
   <stop offset="1" style="stop-opacity:0; stop-color:white"/>
  </radialGradient>
    <rect style="fill:url(#id7)" x="1350" y="517" width="82.0409" height="116.773"/>
   </mask>
   <mask id="id8">
  <radialGradient id="id9" gradientUnits="userSpaceOnUse" cx="2498.85" cy="258.049" r="73.4084" fx="2498.85" fy="258.049">
   <stop offset="0" style="stop-opacity:1; stop-color:white"/>
   <stop offset="1" style="stop-opacity:0; stop-color:white"/>
  </radialGradient>
    <rect style="fill:url(#id9)" x="1472" y="505" width="178.351" height="56.9098"/>
   </mask>
   <mask id="id10">
  <linearGradient id="id11" gradientUnits="userSpaceOnUse" x1="1545.19" y1="581.446" x2="1525.6" y2="598.987">
   <stop offset="0" style="stop-opacity:0; stop-color:white"/>
   <stop offset="0.231373" style="stop-opacity:-127.502; stop-color:white"/>
   <stop offset="1" style="stop-opacity:1; stop-color:white"/>
  </linearGradient>
    <rect style="fill:url(#id11)" x="1511" y="573" width="49.3684" height="34.5928"/>
   </mask>
   <mask id="id12">
  <linearGradient id="id13" gradientUnits="userSpaceOnUse" x1="590.159" y1="753.183" x2="559.188" y2="762.621">
   <stop offset="0" style="stop-opacity:0; stop-color:white"/>
   <stop offset="0.4" style="stop-opacity:-127.502; stop-color:white"/>
   <stop offset="1" style="stop-opacity:1; stop-color:white"/>
  </linearGradient>
    <rect style="fill:url(#id13)" x="552" y="712" width="45.9243" height="90.9994"/>
   </mask>
  <linearGradient id="id14" gradientUnits="userSpaceOnUse" x1="790.617" y1="628.354" x2="790.617" y2="119.053">
   <stop offset="0" style="stop-opacity:1; stop-color:#5B5B5B"/>
   <stop offset="1" style="stop-opacity:1; stop-color:#434242"/>
  </linearGradient>
  <linearGradient id="id15" gradientUnits="userSpaceOnUse" x1="859.805" y1="590.544" x2="859.805" y2="77.5846">
   <stop offset="0" style="stop-opacity:1; stop-color:#9D9D9D"/>
   <stop offset="0.541176" style="stop-opacity:1; stop-color:#A7A8A8"/>
   <stop offset="0.278431" style="stop-opacity:1; stop-color:#818181"/>
   <stop offset="0.631373" style="stop-opacity:1; stop-color:#5B5B5C"/>
   <stop offset="1" style="stop-opacity:1; stop-color:#B2B3B3"/>
  </linearGradient>
  <linearGradient id="id16" gradientUnits="userSpaceOnUse" x1="961.218" y1="597.025" x2="961.218" y2="85.0158">
   <stop offset="0" style="stop-opacity:1; stop-color:#D9DADA"/>
   <stop offset="0.458824" style="stop-opacity:1; stop-color:#E3E3E3"/>
   <stop offset="0.54902" style="stop-opacity:1; stop-color:#F9F9F9"/>
   <stop offset="0.721569" style="stop-opacity:1; stop-color:#F9F9F9"/>
   <stop offset="1" style="stop-opacity:1; stop-color:#EDEDED"/>
  </linearGradient>
  <linearGradient id="id17" gradientUnits="userSpaceOnUse" x1="1145.8" y1="659.911" x2="1037.31" y2="44.6235">
   <stop offset="0" style="stop-opacity:1; stop-color:#919191"/>
   <stop offset="0.501961" style="stop-opacity:1; stop-color:#BDBDBD"/>
   <stop offset="0.0784314" style="stop-opacity:1; stop-color:#B4B4B5"/>
   <stop offset="0.439216" style="stop-opacity:1; stop-color:#F9F9F9"/>
   <stop offset="0.788235" style="stop-opacity:1; stop-color:#F9F9F9"/>
   <stop offset="1" style="stop-opacity:1; stop-color:#E9E9E9"/>
  </linearGradient>
  <linearGradient id="id18" gradientUnits="userSpaceOnUse" x1="1149.21" y1="899.397" x2="1149.21" y2="449.406">
   <stop offset="0" style="stop-opacity:1; stop-color:#787878"/>
   <stop offset="0.360784" style="stop-opacity:1; stop-color:#7C7C7C"/>
   <stop offset="0.368627" style="stop-opacity:1; stop-color:#5B5B5C"/>
   <stop offset="0.619608" style="stop-opacity:1; stop-color:#B2B3B3"/>
   <stop offset="0.819608" style="stop-opacity:1; stop-color:#444545"/>
   <stop offset="1" style="stop-opacity:1; stop-color:gray"/>
  </linearGradient>
  <linearGradient id="id19" gradientUnits="userSpaceOnUse" x1="1168.15" y1="561.52" x2="1168.15" y2="9.38429">
   <stop offset="0" style="stop-opacity:1; stop-color:#F9F9F9"/>
   <stop offset="0.470588" style="stop-opacity:1; stop-color:#F0F0F0"/>
   <stop offset="0.94902" style="stop-opacity:1; stop-color:#F9F9F9"/>
   <stop offset="1" style="stop-opacity:1; stop-color:#E7E7E7"/>
  </linearGradient>
  <linearGradient id="id20" gradientUnits="userSpaceOnUse" x1="1052.3" y1="620.19" x2="1052.3" y2="85.9472">
   <stop offset="0" style="stop-opacity:1; stop-color:#D9DADA"/>
   <stop offset="0.701961" style="stop-opacity:1; stop-color:#F9F9F9"/>
   <stop offset="1" style="stop-opacity:1; stop-color:#EEEEEE"/>
  </linearGradient>
  <linearGradient id="id21" gradientUnits="userSpaceOnUse" x1="1111.61" y1="654.01" x2="1111.61" y2="90.0751">
   <stop offset="0" style="stop-opacity:1; stop-color:#525252"/>
   <stop offset="0.501961" style="stop-opacity:1; stop-color:#4B4A4A"/>
   <stop offset="0.168627" style="stop-opacity:1; stop-color:#4D4D4D"/>
   <stop offset="0.278431" style="stop-opacity:1; stop-color:#434242"/>
   <stop offset="0.509804" style="stop-opacity:1; stop-color:#434242"/>
   <stop offset="0.721569" style="stop-opacity:1; stop-color:dimgray"/>
   <stop offset="0.870588" style="stop-opacity:1; stop-color:#434242"/>
   <stop offset="1" style="stop-opacity:1; stop-color:#434242"/>
  </linearGradient>
  <linearGradient id="id22" gradientUnits="userSpaceOnUse" x1="1148.42" y1="881.668" x2="1148.42" y2="459.781">
   <stop offset="0" style="stop-opacity:1; stop-color:#949494"/>
   <stop offset="0.478431" style="stop-opacity:1; stop-color:#C6C6C6"/>
   <stop offset="0.0588235" style="stop-opacity:1; stop-color:#B0B0B0"/>
   <stop offset="0.239216" style="stop-opacity:1; stop-color:#F9F9F9"/>
   <stop offset="1" style="stop-opacity:1; stop-color:#F9F9F9"/>
  </linearGradient>
  <linearGradient id="id23" gradientUnits="userSpaceOnUse" x1="1168.15" y1="964.36" x2="1168.15" y2="9.38429">
   <stop offset="0" style="stop-opacity:1; stop-color:#828282"/>
   <stop offset="0.470588" style="stop-opacity:1; stop-color:#B9B9B9"/>
   <stop offset="0.168627" style="stop-opacity:1; stop-color:#B6B7B7"/>
   <stop offset="0.541176" style="stop-opacity:1; stop-color:#F9F9F9"/>
   <stop offset="1" style="stop-opacity:1; stop-color:#F0F0F0"/>
  </linearGradient>
  <linearGradient id="id24" gradientUnits="userSpaceOnUse" x1="1167.42" y1="934.531" x2="1167.42" y2="40.1988">
   <stop offset="0" style="stop-opacity:1; stop-color:#5E5E5E"/>
   <stop offset="0.501961" style="stop-opacity:1; stop-color:#515050"/>
   <stop offset="0.501961" style="stop-opacity:1; stop-color:#9D9D9D"/>
   <stop offset="1" style="stop-opacity:1; stop-color:#434242"/>
  </linearGradient>
  <linearGradient id="id25" gradientUnits="userSpaceOnUse" x1="810.967" y1="607.291" x2="783.011" y2="415.556">
   <stop offset="0" style="stop-opacity:1; stop-color:#D9DADA"/>
   <stop offset="1" style="stop-opacity:1; stop-color:#F9F9F9"/>
  </linearGradient>
 </defs>
 <g id="Слой_x0020_2">
  <metadata id="CorelCorpID_0Corel-Layer"/>
  <path class="fil0" d="M641 584c14,-30 40,-87 74,-163 34,-75 77,-170 99,-217 21,-48 21,-48 14,-54 -7,-6 -22,-18 -29,-24 -8,-6 -8,-7 -4,-7 3,0 11,0 28,11 17,10 43,32 64,53 22,22 40,43 51,62 11,19 16,35 16,52 1,17 -4,35 -6,44 -3,8 -3,8 -3,8 0,0 0,0 1,-8 1,-9 3,-26 2,-42 -1,-15 -4,-28 -12,-41 -9,-14 -22,-28 -31,-37 -10,-10 -15,-14 -18,-17 -3,-2 -3,-2 -5,2 -2,3 -6,11 -20,43 -14,32 -37,89 -59,144 -21,54 -41,106 -52,135 -12,29 -15,35 -28,48 -13,12 -35,32 -52,42 -17,10 -27,11 -34,10 -7,-1 -9,-5 -10,-8 -1,-3 1,-6 14,-36z"/>
  <path class="fil1" d="M552 784c5,-13 13,-32 19,-44 5,-12 9,-18 12,-21 4,-4 7,-5 13,-5 7,-1 15,-1 40,1 24,3 64,7 101,10 37,3 71,5 107,6 37,1 76,1 116,2 40,0 80,0 120,-1 39,-1 77,-3 106,-6 29,-3 48,-7 66,-11 18,-5 33,-11 47,-18 14,-6 27,-14 38,-22 12,-9 23,-18 31,-26 8,-9 13,-16 16,-20 3,-5 3,-7 1,-10 -1,-4 -4,-9 -10,-20 -6,-10 -16,-27 -21,-36 -4,-10 -4,-12 -3,-14 1,-3 3,-6 24,-22 22,-17 63,-48 84,-63 21,-16 21,-16 64,-14 43,2 129,5 173,8 45,2 47,3 49,4 2,1 3,2 5,5 1,2 2,5 2,9 0,5 -1,10 -4,20 -4,10 -9,26 -14,36 -5,10 -9,15 -13,18 -5,3 -11,4 -17,4 -6,0 -12,-1 -23,-4 -11,-2 -27,-7 -41,-9 -14,-2 -26,-2 -34,-2 -7,1 -10,1 -14,3 -4,2 -9,6 -15,11 -5,6 -12,12 -15,16 -3,4 -3,6 2,11 5,5 14,13 26,23 12,9 26,20 37,29 12,10 19,18 25,27 6,9 10,19 13,29 2,10 3,20 1,35 -2,14 -7,34 -12,49 -5,16 -12,27 -18,36 -7,9 -14,16 -20,21 -6,5 -11,8 -23,14 -13,6 -33,14 -60,22 -27,7 -61,13 -94,17 -33,4 -65,7 -112,10 -48,3 -110,6 -155,7 -45,1 -72,0 -105,-2 -33,-2 -71,-4 -111,-7 -40,-3 -80,-7 -121,-13 -41,-5 -83,-13 -117,-20 -34,-6 -61,-12 -86,-18 -25,-5 -47,-12 -62,-17 -14,-5 -20,-9 -23,-14 -2,-5 0,-11 5,-24z"/>
  <path class="fil2" d="M1167 40c598,0 1082,200 1082,447 0,247 -484,448 -1082,448 -597,0 -1082,-201 -1082,-448 0,-247 485,-447 1082,-447zm0 53c527,0 954,177 954,394 0,218 -427,395 -954,395 -526,0 -954,-177 -954,-395 0,-217 428,-394 954,-394z"/>
  <path class="fil3" style="mask:url(#id0)" d="M2231 405c2,4 4,9 5,13l-125 12c-1,-4 -2,-7 -4,-10l124 -15zm8 21c7,20 10,41 10,61 0,2 0,3 0,5l-128 1c0,-2 0,-4 0,-6 0,-17 -2,-33 -7,-50l125 -11z"/>
  <path class="fil3" style="mask:url(#id2)" d="M89 484l35 -88 111 8c-14,27 -22,55 -22,83l0 1 -124 -4z"/>
  <path class="fil4" style="mask:url(#id4)" d="M896 77c-17,2 -36,3 -55,6 -20,2 -41,5 -63,10 -22,4 -45,10 -60,15 -15,5 -23,9 -28,16 -4,5 -6,13 -7,24 86,-21 180,-37 279,-46 0,-1 0,-2 0,-3 -3,-12 -9,-19 -20,-22 -12,-3 -29,-1 -46,0z"/>
  <path class="fil5" d="M907 79c-5,-1 -10,-1 -13,-1 -2,-1 -3,0 -5,0 -2,1 -6,2 -20,10 -13,7 -37,21 -50,27 -12,7 -12,7 -12,7 0,0 0,0 6,5 5,4 15,13 31,27 16,14 38,32 53,48 16,16 26,28 34,40 8,12 14,23 17,33 3,10 3,20 1,33 -1,13 -5,30 -12,47 -7,18 -17,37 -29,56 -11,18 -24,37 -38,54 -14,17 -29,32 -44,44 -15,12 -30,20 -44,27 -15,6 -28,11 -40,15 -11,3 -21,6 -35,8 -14,3 -31,7 -39,8 -9,2 -9,2 -11,5 -1,3 -5,10 -6,13 -2,4 -2,4 -2,4 0,0 0,0 20,1 21,1 61,3 108,-8 48,-10 102,-33 144,-64 43,-31 74,-70 99,-109 24,-40 43,-80 49,-123 6,-43 -1,-88 -27,-122 -27,-35 -73,-60 -98,-72 -26,-13 -32,-13 -37,-13z"/>
  <path class="fil6" d="M757 559c-11,-1 -14,-4 -17,-9 -2,-4 -4,-9 -6,-13 -3,-4 -5,-8 -8,-5 -3,2 -7,11 -16,18 -10,7 -26,12 -38,16 -12,5 -19,8 -24,12 -5,4 -7,8 -11,17 -5,9 -12,23 -15,32 -2,9 -1,13 2,16 3,3 7,5 19,7 12,2 32,3 66,4 34,0 83,0 133,-2 51,-2 104,-5 148,-10 44,-5 80,-10 110,-17 30,-6 53,-14 79,-25 26,-11 56,-26 83,-41 27,-15 51,-30 86,-54 34,-23 78,-54 114,-84 36,-29 64,-56 83,-78 20,-22 33,-39 41,-56 8,-17 13,-34 15,-49 2,-16 2,-29 0,-41 -2,-12 -5,-22 -8,-32 -4,-9 -9,-17 -16,-25 -7,-7 -16,-15 -30,-23 -15,-9 -35,-19 -51,-24 -16,-5 -27,-4 -37,5 -9,9 -16,27 -37,73 -20,47 -53,123 -121,188 -67,65 -170,119 -264,155 -94,35 -180,52 -217,56 -38,4 -27,-6 -31,-10 -3,-3 -21,-1 -32,-1z"/>
  <path class="fil7" style="mask:url(#id6)" d="M1383 630c0,0 0,-1 1,-1 3,-5 3,-7 1,-10 -1,-4 -4,-9 -10,-20 -6,-10 -16,-27 -21,-36 -4,-10 -4,-12 -3,-14 1,-3 3,-6 24,-22 4,-3 8,-6 12,-10 17,21 33,59 41,82 8,25 5,33 -9,35 -9,1 -23,-1 -36,-4z"/>
  <path class="fil7" style="mask:url(#id8)" d="M1650 543c-3,-1 -7,-1 -10,-2 -14,-2 -26,-2 -34,-2 -7,1 -10,1 -14,3 -4,2 -9,6 -15,11 -3,3 -6,6 -9,9 -28,-2 -61,-4 -78,-6 -20,-1 -20,-1 -17,-5 3,-3 8,-9 21,-18 13,-8 34,-19 58,-24 23,-5 50,-4 67,0 17,4 25,13 29,23 1,4 2,8 2,11z"/>
  <path class="fil8" d="M1586 152c0,-1 -2,-4 -2,-7 -1,-2 0,-4 1,-6 1,-1 4,-2 7,-3 3,0 6,0 10,1 4,0 8,1 10,1 2,1 2,1 2,1 0,0 0,0 -8,-3 -9,-3 -25,-8 -39,-14 -14,-5 -25,-11 -30,-14 -6,-3 -6,-3 -6,-3 0,0 0,0 5,5 5,4 15,13 22,20 6,6 9,9 12,11 2,2 3,3 5,4 2,1 5,4 8,5 2,2 3,3 3,3 1,1 1,1 1,1 0,0 0,0 -1,-2z"/>
  <path class="fil9" d="M1493 87c5,2 13,5 26,11 12,7 28,17 39,24 11,7 17,11 20,14 3,3 2,4 2,5 0,1 -1,2 -2,2 -1,1 -2,1 -3,1 0,1 -1,0 -2,0 -1,0 -3,-1 -9,-6 -6,-4 -16,-12 -27,-19 -10,-6 -20,-12 -28,-16 -9,-4 -16,-6 -20,-8 -4,-2 -5,-3 -5,-5 0,-1 0,-3 1,-4 1,-1 3,-1 8,1z"/>
  <path class="fil7" style="mask:url(#id10)" d="M1547 602c-5,-3 -12,-8 -19,-13 -6,-5 -12,-10 -15,-13 -3,-2 -3,-3 0,-3 3,0 9,0 15,0 5,1 10,2 15,3 5,2 9,3 12,5 3,2 4,5 5,9 0,3 0,7 -1,11 -2,3 -4,5 -5,6 -1,1 -1,1 -1,0 -1,-1 -2,-1 -6,-5z"/>
  <path class="fil7" style="mask:url(#id12)" d="M559 803c-3,0 -4,1 -6,0 -1,-1 -2,-3 -1,-8 1,-5 2,-12 7,-22 4,-11 10,-25 16,-36 5,-10 9,-16 12,-20 3,-3 5,-4 6,-4 1,-1 1,-1 1,2 0,3 0,8 1,13 0,4 2,7 2,9 1,2 1,2 -2,9 -3,7 -10,22 -15,32 -5,11 -9,17 -11,20 -2,4 -2,4 -3,4 -2,0 -5,0 -7,1z"/>
  <path class="fil10" d="M1604 827c6,-5 14,-12 23,-21 8,-9 17,-21 22,-27 5,-6 5,-6 4,-4 -2,3 -4,10 -6,16 -2,7 -4,14 -4,19 0,5 1,8 4,10 3,2 8,2 14,2 6,0 14,-2 18,-2 4,-1 4,-1 4,-1 0,0 0,0 -10,4 -10,4 -31,11 -51,18 -19,8 -38,14 -44,15 -7,2 0,-3 4,-6 4,-4 6,-8 9,-11 3,-4 7,-7 13,-12z"/>
  <path class="fil7" d="M840 149c2,-4 6,-10 10,-13 3,-4 5,-6 6,-7 1,0 1,0 1,0 0,0 0,0 0,1 -1,1 -2,4 -4,8 -2,5 -4,12 -7,17 -3,5 -6,7 -8,7 -1,-1 -2,-3 -2,-5 1,-3 1,-5 4,-8z"/>
  <path class="fil11" d="M880 188c1,-1 2,-4 4,-7 1,-3 3,-6 4,-7 0,-2 0,-2 0,-2 0,0 0,0 0,1 0,2 0,5 0,9 -1,3 -2,8 -2,10 -1,3 -1,3 -2,4 0,0 -2,0 -3,-1 -1,-1 -2,-2 -3,-3 0,-1 1,-2 2,-4z"/>
  <path class="fil12" d="M573 770c4,-9 9,-20 13,-27 4,-7 7,-10 16,-10 8,-1 22,1 56,4 34,4 88,8 147,11 59,3 122,5 181,4 59,0 114,-1 156,-3 43,-3 72,-5 97,-10 25,-5 45,-12 64,-22 20,-9 38,-21 54,-32 15,-11 28,-22 36,-30 9,-8 12,-12 14,-17 2,-5 3,-12 1,-19 -1,-7 -5,-14 -13,-25 -7,-11 -18,-26 -23,-34 -5,-9 -5,-12 13,-28 19,-15 56,-42 76,-56 20,-14 22,-15 26,-16 3,0 7,0 48,1 41,2 118,5 158,8 39,2 40,2 39,5 0,3 -1,8 -4,16 -3,9 -8,23 -12,31 -4,9 -7,13 -13,14 -5,2 -13,1 -32,-2 -18,-3 -47,-7 -66,-9 -20,-2 -29,-2 -37,0 -9,2 -17,6 -28,13 -10,6 -23,16 -30,23 -6,6 -6,9 -3,13 3,4 8,9 19,18 11,10 28,25 41,37 13,13 22,24 28,34 5,10 7,19 7,30 0,10 -2,22 -10,39 -7,17 -21,40 -34,59 -13,19 -26,34 -37,44 -11,10 -20,16 -31,20 -11,4 -23,7 -39,11 -17,3 -39,7 -75,10 -36,3 -87,5 -140,6 -54,1 -110,1 -165,-2 -55,-2 -109,-6 -158,-10 -50,-5 -94,-11 -136,-18 -42,-7 -81,-15 -115,-23 -34,-8 -63,-16 -79,-21 -15,-4 -17,-5 -18,-7 -1,-3 -1,-6 1,-10 1,-5 3,-11 7,-20z"/>
  <path class="fil13" d="M1616 823c-9,3 -25,12 -44,21 -18,8 -40,15 -63,21 -23,6 -49,10 -84,14 -35,4 -81,7 -134,10 -53,2 -113,3 -170,3 -57,-1 -110,-4 -160,-8 -50,-4 -97,-10 -139,-16 -42,-6 -79,-13 -122,-22 -42,-9 -90,-21 -117,-27 -27,-7 -33,-8 -36,-8 -3,0 -3,1 1,4 5,3 15,10 35,16 20,7 51,14 89,23 39,8 85,17 130,24 44,8 87,13 135,17 48,4 102,8 154,9 53,2 103,2 150,0 46,-1 88,-3 124,-6 36,-3 66,-5 91,-9 24,-3 42,-7 59,-11 16,-4 30,-8 45,-14 15,-6 30,-13 41,-19 10,-6 16,-11 20,-15 3,-5 3,-9 -5,-7z"/>
  <path class="fil3" d="M824 203c33,-74 33,-74 33,-74 0,0 0,0 5,6 6,7 17,20 22,28 5,7 5,9 3,13 -3,4 -7,9 -23,44 -15,36 -42,101 -67,161 -25,61 -48,117 -60,146 -11,29 -11,31 -11,33 0,1 0,1 0,1 0,0 0,0 -12,2 -11,2 -34,7 -46,9 -11,2 -11,2 -11,2 0,0 0,0 33,-74 34,-75 100,-223 134,-297z"/>
  <path class="fil14" d="M922 463c13,-17 33,-43 48,-64 15,-22 24,-39 31,-53 7,-14 11,-25 13,-37 2,-12 4,-24 3,-38 0,-13 -3,-27 -7,-40 -4,-13 -11,-26 -20,-41 -10,-15 -23,-32 -40,-51 -16,-19 -37,-40 -48,-51 -10,-10 -10,-10 -10,-10 0,0 0,0 17,-2 18,-2 54,-5 93,-8 38,-2 81,-4 130,-4 49,0 105,1 159,4 54,2 106,7 139,10 34,3 48,6 55,7 7,1 7,1 7,3 0,2 1,6 4,12 4,5 11,13 18,22 7,10 15,21 21,33 6,13 11,26 13,41 2,15 1,31 -1,45 -3,15 -8,28 -16,42 -8,14 -19,30 -35,49 -16,19 -37,40 -66,67 -29,26 -67,57 -102,83 -36,27 -69,50 -98,67 -29,17 -55,29 -82,40 -27,10 -56,19 -83,25 -28,7 -54,11 -100,15 -45,4 -110,8 -167,10 -57,2 -106,1 -133,1 -26,-1 -29,-3 -30,-5 -1,-2 -1,-6 0,-10 1,-4 2,-9 6,-16 3,-8 7,-17 10,-22 2,-5 2,-6 2,-6 1,0 1,0 13,-2 12,-1 37,-5 61,-9 23,-4 46,-10 64,-15 18,-4 31,-8 43,-14 13,-6 25,-14 35,-22 10,-8 18,-16 26,-24 7,-7 14,-15 27,-32z"/>
  <path class="fil15" d="M922 463c6,-8 14,-18 22,-28 -8,13 -17,26 -24,36 -14,21 -22,30 -30,38 -7,8 -15,15 -23,20 -8,6 -17,11 -26,16 -9,4 -18,7 -31,11 -12,4 -26,8 -45,12 -19,4 -41,9 -64,12 -18,3 -37,6 -51,8l1 -1c2,-5 2,-6 2,-6 1,0 1,0 13,-2 12,-1 37,-5 61,-9 23,-4 46,-10 64,-15 18,-4 31,-8 43,-14 13,-6 25,-14 35,-22 10,-8 18,-16 26,-24 7,-7 14,-15 27,-32z"/>
  <path class="fil16" d="M1168 9c640,0 1159,214 1159,478 0,264 -519,477 -1159,477 -640,0 -1159,-213 -1159,-477 0,-264 519,-478 1159,-478zm0 46c579,0 1049,193 1049,432 0,238 -470,432 -1049,432 -579,0 -1048,-194 -1048,-432 0,-239 469,-432 1048,-432z"/>
  <path class="fil17" d="M1168 9c621,0 1128,202 1158,455 -32,34 -74,67 -125,98 10,-25 16,-50 16,-75 0,-239 -470,-432 -1049,-432 -579,0 -1048,193 -1048,432 0,25 5,50 15,75 -50,-31 -92,-64 -124,-98 29,-253 536,-455 1157,-455z"/>
  <g>
   <path class="fil7" d="M1168 0c321,0 612,54 823,141 213,87 345,210 345,346 0,136 -132,258 -345,346 -211,87 -502,141 -823,141 -321,0 -612,-54 -823,-141 -213,-88 -345,-210 -345,-346 0,-136 132,-259 345,-346 211,-87 502,-141 823,-141zm0 9c640,0 1159,214 1159,478 0,264 -519,477 -1159,477 -640,0 -1159,-213 -1159,-477 0,-264 519,-478 1159,-478z"/>
  </g>
  <path class="fil18" d="M1222 442c19,-15 44,-37 64,-56 20,-18 33,-34 44,-47 11,-12 19,-23 26,-33 6,-11 12,-22 16,-33 5,-10 7,-20 8,-30 2,-10 3,-21 2,-32 -1,-11 -4,-23 -9,-35 -5,-13 -12,-26 -21,-39 -10,-12 -21,-25 -29,-33 -9,-9 -14,-14 -16,-16 -3,-3 -3,-3 3,0 5,4 16,10 27,19 10,10 21,21 30,33 9,12 15,24 19,36 4,12 7,25 8,38 1,13 0,26 -3,40 -3,14 -8,28 -17,43 -8,15 -19,31 -33,48 -15,17 -32,36 -52,55 -21,19 -43,38 -71,59 -27,20 -59,43 -84,60 -25,16 -43,27 -62,37 -19,10 -40,19 -62,27 -22,8 -45,14 -66,19 -21,5 -41,8 -62,11 -21,3 -45,6 -74,7 -30,1 -65,-1 -83,-1 -18,-1 -18,-1 -10,-1 8,-1 24,-1 50,-3 26,-1 61,-4 93,-8 32,-3 60,-9 85,-15 24,-5 45,-11 64,-18 20,-7 38,-16 58,-26 19,-10 39,-22 58,-34 19,-13 37,-26 52,-37 15,-11 28,-20 47,-35z"/>
  <path class="fil19" d="M845 578c17,-4 35,-9 53,-15 19,-7 38,-16 58,-28 21,-13 43,-29 65,-47 22,-19 43,-38 63,-59 19,-20 37,-41 51,-59 14,-17 24,-32 32,-45 9,-14 15,-27 19,-39 4,-12 7,-23 8,-35 1,-12 0,-25 -4,-38 -3,-14 -10,-28 -18,-42 -8,-14 -18,-28 -30,-43 -13,-14 -27,-29 -35,-36 -7,-8 -7,-8 -4,-6 3,1 8,4 18,11 9,7 22,18 33,31 12,13 21,27 29,41 8,13 14,26 17,40 4,14 5,28 5,42 -1,15 -4,29 -9,43 -5,14 -12,28 -23,43 -10,16 -24,34 -41,55 -17,20 -38,42 -59,62 -20,21 -41,39 -60,54 -20,15 -39,27 -57,37 -19,11 -37,19 -54,26 -18,7 -35,13 -57,17 -22,4 -49,7 -71,9 -23,1 -41,0 -50,-1 -9,-1 -9,-1 4,-2 14,-1 41,-3 63,-6 21,-3 37,-6 54,-10z"/>
  <path class="fil20" d="M1222 435c19,-15 45,-37 64,-56 20,-18 34,-34 44,-47 11,-13 19,-23 26,-33 7,-11 13,-22 17,-33 4,-10 6,-20 8,-30 1,-10 2,-21 1,-32 -1,-11 -4,-23 -9,-36 -5,-12 -12,-25 -21,-38 -9,-12 -21,-25 -29,-33 -8,-9 -13,-14 -16,-16 -2,-3 -2,-3 3,0 5,4 16,10 27,19 11,9 22,21 30,33 9,12 15,24 19,36 5,12 7,25 8,38 1,13 0,26 -3,40 -3,13 -8,27 -16,42 -8,15 -20,31 -34,49 -14,17 -32,36 -52,55 -20,19 -43,38 -70,58 -28,21 -59,44 -84,61 -25,16 -43,27 -63,37 -19,10 -40,19 -62,27 -22,8 -45,14 -66,19 -21,5 -40,8 -62,11 -21,3 -44,6 -74,8 -30,2 -67,3 -85,4 -19,0 -19,0 -10,-1 8,-1 25,-3 52,-6 26,-3 61,-6 93,-10 32,-5 61,-10 85,-16 24,-5 45,-11 64,-18 20,-8 39,-16 58,-26 19,-10 40,-22 59,-34 19,-13 36,-26 52,-37 15,-11 27,-20 46,-35z"/>
  <path class="fil20" d="M845 570c17,-4 35,-8 53,-15 19,-7 38,-16 58,-28 21,-13 43,-29 65,-47 22,-18 43,-38 63,-59 19,-20 37,-41 51,-59 14,-17 24,-31 32,-45 9,-14 15,-27 19,-39 4,-12 7,-23 8,-35 1,-12 0,-24 -4,-38 -3,-13 -10,-28 -18,-42 -8,-14 -18,-28 -30,-43 -13,-14 -27,-29 -35,-36 -7,-7 -7,-7 -4,-6 3,1 8,4 18,11 9,7 22,19 33,31 12,13 21,27 29,41 8,13 14,27 17,40 4,14 5,28 5,43 -1,14 -4,28 -9,42 -5,14 -12,28 -23,44 -10,15 -24,33 -41,54 -17,20 -38,43 -59,63 -20,20 -41,38 -60,53 -20,15 -39,27 -57,37 -19,11 -37,20 -54,27 -18,7 -35,12 -57,16 -22,5 -48,9 -71,11 -23,3 -43,4 -52,4 -10,1 -10,1 4,-2 14,-2 42,-7 64,-11 22,-4 38,-8 55,-12z"/>
 </g>
</svg>
